<?xml version="1.0" encoding="utf-8"?>
<!-- Generator: Adobe Illustrator 15.0.0, SVG Export Plug-In  -->
<!DOCTYPE svg PUBLIC "-//W3C//DTD SVG 1.1//EN" "http://www.w3.org/Graphics/SVG/1.1/DTD/svg11.dtd" [
	<!ENTITY ns_flows "http://ns.adobe.com/Flows/1.0/">
]>
<svg version="1.1"
	 xmlns="http://www.w3.org/2000/svg" xmlns:xlink="http://www.w3.org/1999/xlink" xmlns:a="http://ns.adobe.com/AdobeSVGViewerExtensions/3.0/"
	 x="0px" y="0px" width="600px" height="600px" viewBox="-41.723 -41.727 600 600"
	 overflow="visible" enable-background="new -41.723 -41.727 600 600" xml:space="preserve">
<defs>
</defs>
<path display="none" fill="#FFFFFF" d="M171.256,54.145c-5.5,0-10,4.5-10,10v60c0,5.516-4.5,10-10,10s-10-4.484-10-10v-60
	c0-5.5-4.5-10-10-10s-10,4.5-10,10v60c0,5.516-4.5,10-10,10s-10-4.484-10-10v-60c0-5.5-4.5-10-10-10s-10,4.5-10,10v75.594
	c0,7.297,2.156,14.062,5.594,20c3.5,5.969,8.438,10.891,14.406,14.406v170c0,16.484,13.516,30,30,30c16.531,0,30-13.516,30-30v-170
	c5.969-3.516,10.938-8.438,14.406-14.406c3.484-5.938,5.594-12.703,5.594-20V64.145C181.256,58.645,176.756,54.145,171.256,54.145z
	 M131.256,354.144c-5.5,0-10-4.483-10-10c0-5.547,4.5-10,10-10c5.547,0,10,4.453,10,10
	C141.256,349.66,136.803,354.144,131.256,354.144z"/>
<path display="none" fill="#FFFFFF" d="M281.256,54.145h-20c-10.969,0-20,8.984-20,20v160v20v100c0,10.984,9.031,20,20,20h20
	c11.017,0,20-9.016,20-20v-100h20c11.017,0,20-9.016,20-20v-120C341.256,81.145,314.256,54.145,281.256,54.145z"/>
<path display="none" fill="#FFFFFF" d="M302.256,60.722h-180c-33,0-60,26.984-60,60v180c0,33.017,27,60,60,60h180
	c33,0,60-26.983,60-60v-180C362.256,87.707,335.256,60.722,302.256,60.722z M222.256,340.722h-20c0,0-80-120-80-150
	c0-49.609,40.391-90,90-90c49.655,0,90,40.391,90,90C302.256,220.722,222.256,340.722,222.256,340.722z"/>
<path display="none" fill="#FFFFFF" d="M212.256,140.722c-27.578,0-50,22.391-50,50c0,3.406,0.344,6.766,1.016,10
	c4.641,22.812,24.844,40,48.984,40c24.188,0,44.375-17.188,48.983-40c0.672-3.234,1.017-6.594,1.017-10
	C262.256,163.112,239.834,140.722,212.256,140.722z M240.412,200.722c-4.125,11.609-15.109,20-28.156,20s-24.031-8.391-28.156-20
	c-1.094-3.156-1.844-6.469-1.844-10c0-16.562,13.438-30,30-30s30,13.438,30,30C242.256,194.253,241.553,197.566,240.412,200.722z"/>
<path display="none" fill="#FFFFFF" d="M215.256,54.222c-60.75,0-110,49.25-110,110c0,70,74.219,124.108,110,210
	c35.781-85.906,110-140,110-210C325.256,103.472,276.006,54.222,215.256,54.222z M125.601,141.395h68.719l20.938-67.375
	l20.938,67.375h68.718l-55.312,37.266l29.484,64.5l-63.829-40.125l-63.78,40.125l29.484-64.5L125.601,141.395z"/>
<path display="none" fill="#FFFFFF" d="M308.428,72.503c-31.25-31.25-81.875-31.219-113.125,0l113.125,113.125
	C339.678,154.409,339.726,103.753,308.428,72.503z"/>
<path display="none" fill="#FFFFFF" d="M305.897,263.582c-26.327-18.812-69.25-17.25-105.969,28.392
	c-40.406,50.25-77.031,61.75-97.703,55.719c-10.234-2.922-16.719-10.155-17.859-19.78c-1.125-9.812,3.641-23.453,18.406-36.828
	l7.688,7.703l14.188-9.438l0.156,0.578l30.469-20.517l21.875-14.719c-0.125-0.062-0.234-0.062-0.344-0.125l69.062-46.062
	c16,1.203,32.188-2.328,46.438-10.719L183.178,88.646c-8.375,14.266-11.906,30.422-10.719,46.422L82.178,270.506l6.5,6.5
	C71.24,293.068,62.381,311.85,64.49,330.24c2.062,17.75,14.094,31.483,32.188,36.672c34.922,10.095,79.344-13.28,118.828-62.392
	c28.594-35.53,60.203-37.953,78.75-24.672c16.405,11.703,25.312,37.328,12.422,69.219h21.125
	C340.397,310.628,327.492,278.988,305.897,263.582z M177.741,189.066l14.125,14.141l-14.125,14.141l-14.157-14.142L177.741,189.066z
	"/>
<path fill="#25C6CA" d="M516.555,258.273c0,142.648-115.633,258.273-258.281,258.273C115.629,516.546,0,400.921,0,258.273
	C0,115.624,115.629,0,258.273,0C400.922,0,516.555,115.625,516.555,258.273z"/>
<path fill="#FFFFFF" d="M126.008,412.273l5.816-8.043c2.156,2.578,5.758,4.922,9.895,4.922c3.117,0,4.98-1.316,4.98-3.777
	c0-2.938-2.699-3.781-7.262-5.156c-6.113-1.861-11.512-5.039-11.512-12.301c0-7.973,6.535-13.309,15.773-13.309
	c6.414,0,11.27,1.98,14.332,4.859l-5.457,8.031c-1.738-1.977-4.68-3.652-8.277-3.652c-3.117,0-4.438,1.258-4.438,2.938
	c0,2.637,3.18,3.355,6.66,4.438c6.832,2.152,12.109,5.273,12.109,13.01c0,8.102-5.816,14.154-16.312,14.154
	C134.582,418.386,128.59,415.085,126.008,412.273z"/>
<path fill="#FFFFFF" d="M163.746,375.445h25.547v9.539h-13.492v6.297h13.254v9.535h-13.254v7.191h14.031v9.539h-26.086V375.445z"/>
<path fill="#FFFFFF" d="M195.668,375.445h25.547v9.539h-13.496v6.297h13.254v9.535h-13.254v7.191h14.035v9.539h-26.086V375.445z"/>
<path fill="#FFFFFF" d="M239.105,406.089c0-5.699,4.141-9.711,9.055-12.055c-1.977-2.453-3.48-5.332-3.48-8.812
	c0-7.434,6.535-10.852,13.551-10.852c9.535,0,12.656,6.297,12.656,10.793c0,5.457-4.496,9.055-8.219,10.973l6.301,6.777
	c1.5-1.98,1.801-4.199,1.801-7.078h9.353c0,6.242-2.16,9.896-5.336,13.316l7.854,8.395h-12.59l-2.285-2.52
	c-3.176,1.977-7.793,3.594-12.647,3.594C247.258,418.621,239.105,415.507,239.105,406.089z M261.832,408.851l-8.156-8.814
	c-2.094,1.082-3.238,3-3.238,5.457c0,2.641,2.461,4.857,6.184,4.857C258.891,410.351,260.516,409.753,261.832,408.851z
	 M262.066,385.222c0-1.197-0.832-3.115-3.41-3.115c-2.754,0-3.48,2.102-3.48,3.232c0,1.689,0.66,3.18,2.277,5.156
	C259.973,389.539,262.066,387.617,262.066,385.222z"/>
<path fill="#FFFFFF" d="M300.301,375.445h15.535c14.875,0,23.387,7.918,23.387,21.051c0,12.891-8.762,21.051-23.387,21.051h-15.535
	V375.445z M312.355,407.835h2.578c7.733,0,11.883-3.723,11.883-11.34s-4.148-11.332-11.883-11.332h-2.578V407.835z"/>
<path fill="#FFFFFF" d="M342.965,396.554c0-10.371,7.434-21.943,23.086-21.943c15.711,0,23.152,11.572,23.152,21.943
	c0,10.32-7.441,21.832-23.152,21.832C350.398,418.386,342.965,406.875,342.965,396.554z M376.781,396.554
	c0-7.551-4.914-11.447-10.789-11.447c-5.758,0-10.672,3.896-10.672,11.447c0,7.5,4.914,11.336,10.672,11.336
	C371.867,407.89,376.781,404.054,376.781,396.554z"/>
<polygon fill="#FFFFFF" points="331.273,181.105 355.598,156.773 331.273,132.438 270.441,132.438 270.441,108.105 246.117,108.105 
	246.117,132.438 197.453,132.438 197.453,181.105 246.117,181.105 246.117,193.266 185.281,193.266 160.949,217.594 
	185.281,241.926 246.117,241.926 246.117,302.761 270.441,302.761 270.441,241.926 319.109,241.926 319.109,193.266 
	270.441,193.266 270.441,181.105 "/>
</svg>
